# xmcd CD database file
#
# Track frame offsets:
#	150
#	13852
#	30376
#	41857
#	59846
#	71871
#	83368
#	98252
#	112547
#	128257
#
# Disc length: 1909 seconds
#
# Revision: 0
# Processed by: cddbd v1.5.2PL0 Copyright (c) Steve Scherf et al.
# Submitted via: CDex 1.50beta10
#
DISCID=6f07730a
DTITLE=Atlanta - Atlanta
DYEAR=1984
DGENRE=Country
TTITLE0=Can't You Hear That Whistle Blow
TTITLE1=She Will
TTITLE2=Dancin' On The Bayou
TTITLE3=Long Ago Shoes
TTITLE4=We're History
TTITLE5=Why Not Tonight
TTITLE6=She's The Best Friend I Ever Had
TTITLE7=One Jump Ahead Of The Storm
TTITLE8=My Sweet-Eyed Georgia Girl
TTITLE9=Good Time Chariot
EXTD=YEAR: 1984
EXTT0=
EXTT1=
EXTT2=
EXTT3=
EXTT4=
EXTT5=
EXTT6=
EXTT7=
EXTT8=
EXTT9=
PLAYORDER=
